<?xml version="1.0" ?><svg fill="none" height="24" viewBox="0 0 24 24" width="24" xmlns="http://www.w3.org/2000/svg"><path clip-rule="evenodd" d="M8 14.5C7.17157 14.5 6.5 15.1716 6.5 16V18C6.5 18.8284 7.17157 19.5 8 19.5H16C16.8284 19.5 17.5 18.8284 17.5 18V16C17.5 15.1716 16.8284 14.5 16 14.5H8ZM5.5 16C5.5 14.6193 6.61929 13.5 8 13.5H16C17.3807 13.5 18.5 14.6193 18.5 16V18C18.5 19.3807 17.3807 20.5 16 20.5H8C6.61929 20.5 5.5 19.3807 5.5 18V16Z" fill="black" fill-rule="evenodd"/><path clip-rule="evenodd" d="M12 11C13.6569 11 15 9.65685 15 8C15 6.34315 13.6569 5 12 5C10.3431 5 9 6.34315 9 8C9 9.65685 10.3431 11 12 11ZM12 12C14.2091 12 16 10.2091 16 8C16 5.79086 14.2091 4 12 4C9.79086 4 8 5.79086 8 8C8 10.2091 9.79086 12 12 12Z" fill="black" fill-rule="evenodd"/></svg>